<svg xmlns="http://www.w3.org/2000/svg" xmlns:xlink="http://www.w3.org/1999/xlink" version="1.1" width="1000" height="1000" viewBox="0 0 1000 1000" xml:space="preserve">
<desc>Created with Fabric.js 3.5.0</desc>
<defs>
</defs>
<rect x="0" y="0" width="100%" height="100%" fill="#ffffff"/>
<g transform="matrix(56.818 0 0 56.818 499.9997 499.9998)" id="201305">
<path style="stroke: none; stroke-width: 1; stroke-dasharray: none; stroke-linecap: butt; stroke-dashoffset: 0; stroke-linejoin: miter; stroke-miterlimit: 4; is-custom-font: none; font-file-url: none; fill: rgb(252,238,33); fill-rule: nonzero; opacity: 1;" vector-effect="non-scaling-stroke" transform=" translate(-8.0014, -7.9997)" d="M 3.612 15.443 c -0.386 0.198 -0.824 -0.149 -0.746 -0.592 l 0.83 -4.73 L 0.173 6.765 c -0.329 -0.314 -0.158 -0.888 0.283 -0.95 l 4.898 -0.696 L 7.538 0.792 c 0.197 -0.39 0.73 -0.39 0.927 0 l 2.184 4.327 l 4.898 0.696 c 0.441 0.062 0.612 0.636 0.282 0.95 l -3.522 3.356 l 0.83 4.73 c 0.078 0.443 -0.36 0.79 -0.746 0.592 L 8 13.187 l -4.389 2.256 z" stroke-linecap="round"/>
</g>
</svg>