<svg xmlns="http://www.w3.org/2000/svg" xmlns:xlink="http://www.w3.org/1999/xlink" version="1.1" width="1000" height="1000" viewBox="0 0 1000 1000" xml:space="preserve">
<desc>Created with Fabric.js 3.5.0</desc>
<defs>
</defs>
<rect x="0" y="0" width="100%" height="100%" fill="#ffffff"/>
<g transform="matrix(56.8171 0 0 56.8171 499.9996 499.9996)" id="556346">
<path style="stroke: none; stroke-width: 1; stroke-dasharray: none; stroke-linecap: butt; stroke-dashoffset: 0; stroke-linejoin: miter; stroke-miterlimit: 4; is-custom-font: none; font-file-url: none; fill: rgb(252,238,33); fill-rule: nonzero; opacity: 1;" vector-effect="non-scaling-stroke" transform=" translate(-8.0015, -7.9994)" d="M 2.866 14.85 c -0.078 0.444 0.36 0.791 0.746 0.593 l 4.39 -2.256 l 4.389 2.256 c 0.386 0.198 0.824 -0.149 0.746 -0.592 l -0.83 -4.73 l 3.522 -3.356 c 0.33 -0.314 0.16 -0.888 -0.282 -0.95 l -4.898 -0.696 L 8.465 0.792 a 0.513 0.513 0 0 0 -0.927 0 L 5.354 5.12 l -4.898 0.696 c -0.441 0.062 -0.612 0.636 -0.283 0.95 l 3.523 3.356 l -0.83 4.73 z m 4.905 -2.767 l -3.686 1.894 l 0.694 -3.957 a 0.565 0.565 0 0 0 -0.163 -0.505 L 1.71 6.745 l 4.052 -0.576 a 0.525 0.525 0 0 0 0.393 -0.288 L 8 2.223 l 1.847 3.658 a 0.525 0.525 0 0 0 0.393 0.288 l 4.052 0.575 l -2.906 2.77 a 0.565 0.565 0 0 0 -0.163 0.506 l 0.694 3.957 l -3.686 -1.894 a 0.503 0.503 0 0 0 -0.461 0 z" stroke-linecap="round"/>
</g>
</svg>